<?xml version="1.0" encoding="UTF-8" standalone="no"?>
<!DOCTYPE svg PUBLIC "-//W3C//DTD SVG 1.0//EN" "http://www.w3.org/TR/2001/REC-SVG-20010904/DTD/svg10.dtd">
<svg width="256" height="256" xmlns="http://www.w3.org/2000/svg" version="1.0">
  <title>Haskell Logo</title>
  <desc>Combination bind and lambda symbol</desc>
<path d="M 32.26723732841862 170.13634227711634 L 55.734319021813974 170.13634227711634 C 57.64101940940235 170.13634227711634 60.31039995202607 167.67229869930983 63.36112057216747 163.09621776909773 L 105.60186762027911 99.73509719693027 L 100.90845128160005 92.69497268891166 L 63.36112057216747 36.373976624762804 C 60.31039995202607 31.7978956945507 57.64101940940235 29.333852116744197 55.734319021813974 29.333852116744197 L 32.26723732841862 29.333852116744197 C 30.360536940830244 29.333852116744197 30.976547835281874 31.7978956945507 34.02726845542327 36.373976624762804 L 76.26801550353491 99.73509719693027 L 71.57459916485584 106.77522170494888 L 34.02726845542327 163.09621776909773 C 30.976547835281874 167.67229869930983 30.360536940830244 170.13634227711634 32.26723732841862 170.13634227711634" fill="#3f2971" stroke="#3f2971" stroke-width="2.0" />
<path d="M 80.3747547998791 170.13634227711634 L 103.84183649327446 170.13634227711634 C 105.74853688086283 170.13634227711634 107.90457501144353 168.44231231737436 110.00194543779074 165.29625667785356 L 139.0424590333675 121.73548628448842 L 142.26918276620935 126.57557188375121 L 168.08297262894428 165.29625667785356 C 170.18034305529147 168.44231231737436 172.33638118587217 170.13634227711634 174.24308157346053 170.13634227711634 L 197.71016326685591 170.13634227711634 C 199.61686365444424 170.13634227711634 197.35815704145497 165.20825512150333 191.25671580117216 156.05609326107913 L 116.162054382307 43.414101132781404 C 110.06061314202422 34.261939272357225 105.74853688086283 29.333852116744197 103.84183649327446 29.333852116744197 L 80.3747547998791 29.333852116744197 C 78.46805441229073 29.333852116744197 79.08406530674236 31.7978956945507 82.13478592688375 36.373976624762804 L 124.3755329749954 99.73509719693027 L 119.68211663631632 106.77522170494888 L 82.13478592688375 163.09621776909773 C 79.08406530674236 167.67229869930983 78.46805441229073 170.13634227711634 80.3747547998791 170.13634227711634" fill="#46787a" stroke="#46787a" stroke-width="2.0" />
<path d="M 151.12798705125337 74.42941229915917 L 163.57340585343587 93.09754050243292 L 169.88268005641785 93.09754050243292 L 220.35687368027382 93.09754050243292 C 224.45790191221212 93.09754050243292 226.6661478832558 92.37155773897227 226.6661478832558 91.0233040354025 L 226.6661478832558 74.42941229915917 C 226.6661478832558 73.08115859558939 223.97391340323836 72.35517583212874 218.97404936892022 72.35517583212874 L 149.74516273989974 72.35517583212874 L 151.12798705125337 74.42941229915917" fill="#3f2971" stroke="#3f2971" stroke-width="2.0" />
<path d="M 173.8063057574526 108.44689035845803 L 186.2517245596351 127.1150185617318 L 190.29316689199717 127.1150185617318 L 222.62470555089376 127.1150185617318 C 225.25164306692912 127.1150185617318 226.6661478832558 126.38903579827118 226.6661478832558 125.0407820947014 L 226.6661478832558 108.44689035845803 C 226.6661478832558 107.09863665488825 224.76765455795535 106.37265389142763 221.24188123954013 106.37265389142763 L 172.423481446099 106.37265389142763 L 173.8063057574526 108.44689035845803" fill="#3f2971" stroke="#3f2971" stroke-width="2.0" />

</svg>
